<svg id="Capa_1" enable-background="new 0 0 512 512" height="512" viewBox="0 0 512 512" width="512" xmlns="http://www.w3.org/2000/svg"><g><path d="m487 394.252c13.785 0 25-11.215 25-25v-31.857h-512v31.857c0 13.785 11.215 25 25 25z"/><path d="m182.955 424.401-10.689 27.673h-18.976c-8.284 0-15 6.716-15 15s6.716 15 15 15h205.422c8.284 0 15-6.716 15-15s-6.716-15-15-15h-18.976l-10.689-27.673z"/><path d="m512 307.396v-252.47c0-13.785-11.215-25-25-25h-462c-13.785 0-25 11.215-25 25v252.47zm-324.117-92.534c5.858 5.858 5.858 15.355 0 21.213-2.929 2.929-6.768 4.394-10.606 4.394s-7.678-1.464-10.606-4.394l-57.307-57.307c-2.829-2.829-4.411-6.671-4.394-10.672s1.633-7.829 4.487-10.633l57.307-56.311c5.91-5.806 15.406-5.723 21.212.186s5.723 15.406-.186 21.212l-46.514 45.705zm29.596 5.594 40.291-113.618c2.769-7.809 11.346-11.896 19.15-9.124 7.808 2.769 11.893 11.343 9.124 19.15l-40.291 113.618c-2.181 6.15-7.964 9.991-14.137 9.991-1.665 0-3.355-.279-5.013-.867-7.808-2.769-11.893-11.343-9.124-19.15zm185.064-40.599-57.307 56.311c-2.92 2.87-6.718 4.301-10.512 4.301-3.883 0-7.763-1.498-10.7-4.487-5.806-5.909-5.723-15.406.186-21.212l46.514-45.705-46.607-46.607c-5.858-5.858-5.858-15.355 0-21.213 5.857-5.858 15.355-5.858 21.213 0l57.307 57.307c2.829 2.829 4.411 6.671 4.394 10.672s-1.634 7.829-4.488 10.633z"/></g></svg>