<svg id="Layer_1" enable-background="new 0 0 70 70" height="512" viewBox="0 0 70 70" width="512" xmlns="http://www.w3.org/2000/svg"><g id="Video_Editing"><path d="m63.6398926 44.745388c1.6975479 0 2.9702148-1.3918686 2.9702148-2.9799805 0-11.4903488 0-22.0310192 0-35.6799316 0-1.6222043-1.313179-2.9799807-2.9702148-2.9799807-21.2981071 0-37.6711731 0-57.2700195 0-1.6398926 0-2.9799805 1.3400881-2.9799805 2.9799807v35.6799316c0 1.6227264 1.3342953 2.9799805 2.9799805 2.9799805h22.0302734l1.6899414 3.3300781-2.1401367 3.7099609c-2.4741879-1.0536537-5.2422638-.1673431-7.1398926 1.7299805-2.9099121 2.9001465-3.4899902 7.7700195-1.2900391 10.8501015 2.3046837 3.2263412 6.6632195 3.3831482 9.7199707.3701172 1.6298828-1.6301308 2.5400391-3.8801308 2.6201172-6.0900917l2.3198242-4.0200195c.4902344-.8601074 1.1899414-1.5600586 2.0100098-2.0500488.8000488.4799805 1.4899902 1.1699219 1.9699707 2.0200195l2.3300781 4.0300293c.0900879 2.1999512.9899902 4.4399414 2.6201172 6.0700722 3.0009003 3.0009003 7.3733482 2.8939209 9.7199707-.3601074 2.1899414-3.0800819 1.6098633-7.949955-1.3000488-10.8601112-1.5300293-1.5200195-3.5-2.3098145-5.4101563-2.1499023-.5998535.0500488-1.1899414.1899414-1.7299805.4199219l-2.1098633-3.6599121 1.6899414-3.3400879c7.1184503-.0000002 12.4943505-.0000002 19.669922-.0000002zm-7.2299805-39.6398911h7.2299805c.5400391 0 .9702148.4399414.9702148.9799805v6.3200679h-8.2001953zm0 30.3400864h8.2001953v6.3198242c0 .5400391-.4301758.9799805-.9702148.9799805h-7.2299805zm-42.8098144 7.2998047h-7.2302247c-.5397949 0-.9799805-.4399414-.9799805-.9799805v-6.3198242h8.2102051v7.2998047zm0-30.3398428h-8.2102051v-6.3200678c0-.5400391.4401855-.9799805.9799805-.9799805h7.2302246zm10.1999511 30.3398428h-8.1999512v-7.2998047h8.079834l.1201172.2399902zm0-30.3398428h-8.1999512v-7.3000483h8.1999512zm30.6098633 30.3398428h-8.1999512v-2.4199219l2.4799805-4.8798828h5.7199707zm-8.1999512-37.6398911h8.1999512v7.3000484h-8.1999512zm-10.2099609 0h8.2099609v7.3000484h-8.2099609zm2.369873 17.1301274c1.2641029.8278389 1.2101364 2.600523.0102539 3.3798828l-4.5700684 2.9399414c-1.4221687.878006-3.1000977-.1745987-3.1000977-1.6999512v-5.8601074c0-1.586937 1.7660484-2.5602551 3.1000977-1.6999512zm-.989746 13.209959c-.0577965.1005059-1.4700165 2.5562096-1.380127 2.3999024 0-.1697006 0-2.5474167 0-2.3999023h1.380127zm-11.5800782-30.3400864h8.1999512v7.3000484h-8.1999512zm0 37.6398911c0-.126915 0-7.558918 0-7.2998047h.1201172 8.079834c0 .3757248 0 6.13451 0 5.8598633l-.829834 1.4399414c-1.2040233 0-5.5047874 0-7.3701172 0zm1.6098633 20.1501465c-1.7785778 1.7785759-4.3390865 2.0054588-5.7900391-.0400391-1.4599609-2.0500488-1-5.5 1.0200195-7.5100098 1.7150688-1.7146034 4.0970154-2.0690384 5.7602539.0100098 1.4836884 2.042717 1.0549374 5.4948693-.9902343 7.5400391zm22.2900391-7.5900879c2.0200195 2.0200195 2.4899902 5.4699707 1.0200195 7.5200195-1.4378052 2.0277824-3.985836 1.8241386-5.7900391.0400391-1.0400391-1.0400391-1.6699219-2.4499512-1.8198242-3.8701172-.6426391-4.2790413 3.3904343-6.8537635 6.5898438-3.6899414zm-7-2.4799804c-.7950058.7209663-1.4057198 1.7005768-1.7299805 2.6401367l-1.0800781-1.8701172c-.3999023-.6799316-.8798828-1.2900391-1.4499512-1.8100586.4101563-.0600586.8400879-.0698242 1.2700195-.0300293.4001465.0300293.7900391-.1799316.9799805-.5397949l.5100098-1zm-3.5-3.0898438c-2.8593445 0-5.3775215 1.5476952-6.75 3.8898926l-1.0698242 1.8601074c-.2099609-.5800781-.5-1.1201172-.8601074-1.6201172-.2600098-.3701172-.5600586-.7099609-.880127-1.0100098.0961075-.1668129 18.4791298-32.0046387 18.5400391-32.1101074 2.3199997 1.8823929 3.2107811 5.3047066 1.5100098 8.3000488-.0607072.1197415-10.5413285 20.7914925-10.4899903 20.6901856z"/><path d="m36.7800293 45.0454369c-.9299316 0-1.6999512.7600098-1.6999512 1.6901855 0 .9299316.7700195 1.6899414 1.6999512 1.6899414s1.6899414-.7600098 1.6899414-1.6899414c0-.9301758-.7600098-1.6901855-1.6899414-1.6901855z"/></g></svg>